<svg width="64" height="65" viewBox="0 0 64 65" fill="none" xmlns="http://www.w3.org/2000/svg">
<path d="M59.5898 2.29684C59.3593 2.27731 59.1249 2.28512 58.8906 2.32028L52.7539 3.21872C45.3632 4.30075 38.6132 8.01168 33.746 13.6718L24.9257 23.9179L9.58198 27.7343C8.56245 27.9882 7.66401 28.5468 6.98042 29.3476L3.70307 33.2031C3.19135 33.8047 3.07807 34.625 3.4101 35.3398C3.74213 36.0547 4.43745 36.5 5.22651 36.5H15.414C15.4609 36.8984 15.5898 37.2812 15.7929 37.6367L13.6367 41.6054C13.6093 41.6562 13.5859 41.7109 13.5664 41.7656C13.4687 42.0625 13.4179 42.3672 13.4101 42.6679L12.9609 42.8047C9.35151 43.9101 6.60932 46.6875 5.62104 50.2343C4.79682 53.1992 4.55854 56.2539 4.49213 57.8164C4.4726 58.375 4.68354 58.9179 5.07807 59.3125C5.44917 59.6836 5.96088 59.8945 6.48432 59.8945C6.51557 59.8945 6.54292 59.8945 6.57026 59.8906C8.12104 59.8281 11.164 59.5937 14.1171 58.7773C17.6406 57.8007 20.4999 54.957 21.5742 51.3593L21.6406 51.1328C21.6953 51.1367 21.746 51.1445 21.8007 51.1445C22.1445 51.1445 22.4921 51.0898 22.8398 50.9765C22.8906 50.9609 22.9374 50.9375 22.9843 50.9101L26.9648 48.8125C27.289 49.0039 27.6367 49.1289 27.9999 49.1875V59.2773C27.9999 60.0664 28.4414 60.7617 29.1562 61.0937C29.4296 61.2187 29.7187 61.2812 30.0039 61.2812C30.4687 61.2812 30.9218 61.1172 31.2929 60.8007L35.1523 57.5195C35.9531 56.8359 36.5078 55.9375 36.7656 54.9179L40.5156 39.832L50.9374 30.8632C56.5976 25.9961 60.3085 19.2422 61.3906 11.8554L62.2851 5.71871C62.4296 4.77731 62.121 3.84372 61.4453 3.16793C60.9374 2.66012 60.2812 2.35934 59.5898 2.29684ZM59.3281 4.28903C59.5898 4.28903 59.8398 4.39059 60.0312 4.57809C60.2539 4.80465 60.3593 5.11715 60.3124 5.43356L59.414 11.5664C58.4023 18.4804 54.9296 24.7968 49.6367 29.3515L39.1914 38.3398C39.0468 38.414 38.9179 38.5156 38.8242 38.6562L29.1289 46.9961C28.7382 47.3359 28.1406 47.3125 27.7695 46.9453L17.6679 36.8437C17.3007 36.4726 17.2773 35.875 17.6132 35.4843L35.2617 14.9765C37.4257 12.4609 39.9882 10.3632 42.8242 8.73825L47.2929 13.207C47.4882 13.4023 47.7421 13.5 47.9999 13.5C48.2578 13.5 48.5117 13.4023 48.707 13.207C49.0976 12.8164 49.0976 12.1836 48.707 11.7929L44.6757 7.76168C47.3007 6.49997 50.1171 5.62496 53.0429 5.19528L59.1757 4.29684C59.2265 4.29293 59.2773 4.28903 59.3281 4.28903ZM50.9999 14.5C50.746 14.5 50.4882 14.5976 50.2929 14.7929C49.9023 15.1836 49.9023 15.8164 50.2929 16.207L53.2929 19.207C53.4882 19.4023 53.7421 19.5 53.9999 19.5C54.2578 19.5 54.5117 19.4023 54.707 19.207C55.0976 18.8164 55.0976 18.1836 54.707 17.7929L51.707 14.7929C51.5117 14.5976 51.2539 14.5 50.9999 14.5ZM42.9999 15.5C39.6914 15.5 36.9999 18.1914 36.9999 21.5C36.9999 24.8086 39.6914 27.5 42.9999 27.5C46.3085 27.5 48.9999 24.8086 48.9999 21.5C48.9999 18.1914 46.3085 15.5 42.9999 15.5ZM42.9999 17.5C45.207 17.5 46.9999 19.2929 46.9999 21.5C46.9999 23.707 45.207 25.5 42.9999 25.5C40.7929 25.5 38.9999 23.707 38.9999 21.5C38.9999 19.2929 40.7929 17.5 42.9999 17.5ZM22.6718 26.539L16.1015 34.1757C16.0156 34.2812 15.9453 34.3906 15.8749 34.5H5.22651L8.50776 30.6406C8.91401 30.164 9.45307 29.8281 10.0664 29.6757L22.6718 26.539ZM35.2773 26.9218C35.0195 26.9218 34.7656 27.0195 34.5664 27.2148C34.1757 27.6054 34.1757 28.2382 34.5664 28.6289L35.9843 30.0429C36.1757 30.2382 36.4335 30.3359 36.6874 30.3359C36.9453 30.3359 37.2031 30.2382 37.3945 30.0429C37.789 29.6523 37.789 29.0195 37.3945 28.6289L35.9843 27.2148C35.7851 27.0195 35.5312 26.9218 35.2773 26.9218ZM31.7382 30.457C31.4843 30.457 31.2265 30.5547 31.0312 30.75C30.6406 31.1406 30.6406 31.7734 31.0312 32.164L32.4492 33.5781C32.6406 33.7734 32.8984 33.8711 33.1562 33.8711C33.4101 33.8711 33.6679 33.7734 33.8593 33.5781C34.2539 33.1875 34.2539 32.5547 33.8593 32.1601L32.4453 30.75C32.2499 30.5547 31.9921 30.457 31.7382 30.457ZM28.2031 33.9961C27.9492 33.9961 27.6914 34.0898 27.496 34.2851C27.1054 34.6797 27.1054 35.3086 27.496 35.7031L28.9101 37.1132C29.1054 37.3086 29.3593 37.4062 29.6171 37.4062C29.8749 37.4062 30.1289 37.3086 30.3242 37.1132C30.7148 36.7226 30.7148 36.0937 30.3242 35.7031L28.9101 34.2851C28.7148 34.0898 28.457 33.9961 28.2031 33.9961ZM24.6718 37.5312C24.414 37.5312 24.1601 37.625 23.9648 37.8242C23.5703 38.2109 23.5703 38.8437 23.9648 39.2343L25.3749 40.6523C25.5703 40.8437 25.8242 40.9414 26.082 40.9414C26.3398 40.9414 26.5937 40.8437 26.789 40.6523C27.1796 40.2617 27.1796 39.6289 26.789 39.2343L25.3749 37.8242C25.1796 37.625 24.9257 37.5312 24.6718 37.5312ZM17.2148 39.2148L25.3867 47.3906L22.1367 49.1015C21.7539 49.2109 21.3867 49.1328 21.1484 48.8945L15.7148 43.4648C15.4531 43.1992 15.3515 42.8242 15.4414 42.4687L17.2148 39.2148ZM37.8945 42.0937L34.8242 54.4375C34.6718 55.0468 34.3398 55.5898 33.8593 56L29.9999 59.2773V48.8203C30.1523 48.7304 30.2968 48.6289 30.4374 48.5117L37.8945 42.0937ZM14.0312 44.5664C14.1132 44.6757 14.2031 44.7812 14.3007 44.875L19.7343 50.3125C19.7499 50.3281 19.7695 50.3359 19.7851 50.3554L19.6562 50.7851C18.7773 53.7343 16.4492 56.0547 13.582 56.8476C10.8242 57.6132 7.95307 57.832 6.49213 57.9023C6.55463 56.4297 6.77729 53.5429 7.54682 50.7695C8.35151 47.8867 10.5937 45.6211 13.5468 44.7187L14.0312 44.5664Z" fill="url(#paint0_linear_1_1229)"/>
<defs>
<linearGradient id="paint0_linear_1_1229" x1="61.9999" y1="-5" x2="15.4999" y2="61" gradientUnits="userSpaceOnUse">
<stop stop-color="#8989F8"/>
<stop offset="1" stop-color="#5C5CFF"/>
</linearGradient>
</defs>
</svg>
