<svg width="218" height="50" viewBox="0 0 218 50" fill="none" xmlns="http://www.w3.org/2000/svg">
<path d="M178.72 34.5106H184.133C187.4 34.5106 188.908 32.8249 188.908 30.523C188.908 28.2136 187.378 26.825 185.9 26.721V26.6022C187.259 26.2384 188.314 25.1839 188.314 23.2829C188.314 20.9958 186.821 19.3028 183.851 19.3028H178.72V34.5106ZM180.108 33.263V27.4042H184.192C186.235 27.4042 187.579 28.7854 187.579 30.523C187.579 32.0972 186.48 33.263 184.133 33.263H180.108ZM180.108 26.1715V20.5503H183.851C185.93 20.5503 186.985 21.6716 186.985 23.2829C186.985 24.9537 185.774 26.1715 183.977 26.1715H180.108ZM192.26 19.3028H190.938V34.5106H192.26V19.3028ZM199.145 34.7482C202.101 34.7482 204.165 32.3348 204.165 28.8596C204.165 25.3621 202.101 22.9488 199.145 22.9488C196.19 22.9488 194.125 25.3621 194.125 28.8596C194.125 32.3348 196.19 34.7482 199.145 34.7482ZM199.145 33.5378C196.776 33.5378 195.455 31.4141 195.455 28.8596C195.455 26.3052 196.776 24.1517 199.145 24.1517C201.514 24.1517 202.836 26.3052 202.836 28.8596C202.836 31.4141 201.514 33.5378 199.145 33.5378ZM210.372 39.0254C213.075 39.0254 215.08 37.7036 215.08 34.8076V23.1047H213.788V25.2805H213.655C213.187 24.2557 212.244 22.9488 210.15 22.9488C207.328 22.9488 205.434 25.3102 205.434 28.7779C205.434 32.2754 207.395 34.3917 210.127 34.3917C212.177 34.3917 213.179 33.2036 213.632 32.1566H213.751V34.7259C213.751 36.8496 212.392 37.8373 210.372 37.8373C208.419 37.8373 207.484 36.8942 207.001 36.0254L205.917 36.7383C206.585 38.0452 208.041 39.0254 210.372 39.0254ZM210.283 33.1814C208.018 33.1814 206.764 31.3695 206.764 28.7557C206.764 26.1864 207.996 24.1517 210.283 24.1517C212.518 24.1517 213.773 26.0824 213.773 28.7557C213.773 31.5106 212.481 33.1814 210.283 33.1814Z" fill="#413E52"/>
<path d="M56.5913 19.2147H62.1784V34.2828H65.9922V19.2147H71.5792V16.0335H56.5913V19.2147ZM76.9743 34.5502C80.3604 34.5502 82.6416 32.9017 83.1762 30.3621L79.6654 30.1304C79.2822 31.173 78.302 31.7165 77.0367 31.7165C75.1387 31.7165 73.9357 30.4601 73.9357 28.4195V28.4106H83.2564V27.3681C83.2564 22.7166 80.4406 20.4176 76.8228 20.4176C72.7951 20.4176 70.1843 23.278 70.1843 27.5017C70.1843 31.8413 72.7595 34.5502 76.9743 34.5502ZM73.9357 26.0582C74.0159 24.4988 75.201 23.2513 76.8852 23.2513C78.5337 23.2513 79.6743 24.4275 79.6832 26.0582H73.9357ZM90.6631 34.5502C94.3076 34.5502 96.5977 32.4116 96.7759 29.2661H93.1937C92.971 30.7274 92.0086 31.5472 90.7076 31.5472C88.9344 31.5472 87.7849 30.0591 87.7849 27.4393C87.7849 24.8552 88.9433 23.376 90.7076 23.376C92.0977 23.376 92.9888 24.2938 93.1937 25.6572H96.7759C96.6155 22.4938 94.2185 20.4176 90.6453 20.4176C86.4928 20.4176 83.9265 23.2958 83.9265 27.4928C83.9265 31.6541 86.4483 34.5502 90.6631 34.5502ZM101.748 26.37C101.757 24.6057 102.835 23.5721 104.385 23.5721C105.927 23.5721 106.836 24.5611 106.827 26.2453V34.2828H110.623V25.5681C110.632 22.3602 108.743 20.4176 105.891 20.4176C103.815 20.4176 102.425 21.3978 101.801 23.0107H101.641V16.0335H97.9517V34.2828H101.748V26.37ZM128.529 22.4226C128.021 18.2077 124.831 15.784 120.607 15.784C115.786 15.784 112.106 19.1879 112.106 25.1582C112.106 31.1106 115.724 34.5323 120.607 34.5323C125.285 34.5323 128.11 31.4225 128.529 28.0631L124.626 28.0453C124.26 29.9967 122.728 31.1195 120.669 31.1195C117.898 31.1195 116.018 29.0611 116.018 25.1582C116.018 21.3622 117.871 19.1968 120.696 19.1968C122.808 19.1968 124.332 20.4176 124.626 22.4226H128.529ZM138.747 28.4552C138.756 30.2908 137.499 31.2532 136.136 31.2532C134.701 31.2532 133.774 30.2462 133.766 28.6334V20.5958H129.97V29.3106C129.978 32.5096 131.85 34.4611 134.603 34.4611C136.662 34.4611 138.141 33.4007 138.756 31.7967H138.898V34.2828H142.543V20.5958H138.747V28.4552ZM150.562 34.5502C153.948 34.5502 156.229 32.9017 156.764 30.3621L153.253 30.1304C152.87 31.173 151.89 31.7165 150.624 31.7165C148.726 31.7165 147.523 30.4601 147.523 28.4195V28.4106H156.844V27.3681C156.844 22.7166 154.028 20.4176 150.41 20.4176C146.383 20.4176 143.772 23.278 143.772 27.5017C143.772 31.8413 146.347 34.5502 150.562 34.5502ZM147.523 26.0582C147.604 24.4988 148.789 23.2513 150.473 23.2513C152.121 23.2513 153.262 24.4275 153.271 26.0582H147.523ZM169.455 24.4988C169.116 21.977 167.084 20.4176 163.627 20.4176C160.125 20.4176 157.817 22.0394 157.826 24.677C157.817 26.7265 159.109 28.0542 161.782 28.5888L164.153 29.0611C165.347 29.3017 165.89 29.7383 165.908 30.4245C165.89 31.2353 165.008 31.8145 163.68 31.8145C162.326 31.8145 161.426 31.2353 161.194 30.1215L157.461 30.3175C157.817 32.9373 160.045 34.5502 163.672 34.5502C167.218 34.5502 169.758 32.7413 169.767 30.0413C169.758 28.0631 168.466 26.878 165.81 26.3344L163.333 25.8354C162.059 25.5592 161.586 25.1225 161.595 24.4631C161.586 23.6433 162.513 23.1087 163.689 23.1087C165.008 23.1087 165.792 23.8305 165.979 24.7126L169.455 24.4988Z" fill="#413E52"/>
<path d="M30.7002 5.14805C21.2618 2.85667 3.08772 18.5144 3.04883 30.1429C3.00248 44.002 23.7401 50.0429 33.822 44.206C43.9038 38.369 40.1387 7.43943 30.7002 5.14805Z" fill="#5C5CFF"/>
<path d="M33.362 20.1825C33.362 24.0676 30.2125 27.217 26.3275 27.217C22.4424 27.217 19.293 24.0676 19.293 20.1825C19.293 16.2975 22.4424 13.148 26.3275 13.148C30.2125 13.148 33.362 16.2975 33.362 20.1825Z" fill="white"/>
</svg>
