<svg width="40" height="40" viewBox="0 0 40 40" fill="none" xmlns="http://www.w3.org/2000/svg">
<path d="M0 20C0 8.95431 8.95431 0 20 0C31.0457 0 40 8.95431 40 20C40 31.0457 31.0457 40 20 40C8.95431 40 0 31.0457 0 20Z" fill="#ABABFA"/>
<path d="M20 10C17.2833 10 16.9442 10.0125 15.8775 10.06C14.8125 10.11 14.0875 10.2775 13.45 10.525C12.7925 10.78 12.2342 11.1225 11.6783 11.6783C11.1225 12.2342 10.7792 12.7917 10.525 13.45C10.2775 14.0875 10.1092 14.8125 10.06 15.8775C10.01 16.9442 10 17.2833 10 20C10 22.7167 10.0125 23.0559 10.06 24.1226C10.11 25.1867 10.2775 25.9126 10.525 26.55C10.78 27.2067 11.1225 27.7659 11.6783 28.3217C12.2342 28.8767 12.7917 29.2209 13.45 29.475C14.0883 29.7217 14.8133 29.8907 15.8775 29.94C16.9442 29.99 17.2833 30 20 30C22.7167 30 23.0559 29.9874 24.1226 29.94C25.1867 29.89 25.9126 29.7217 26.55 29.475C27.2067 29.22 27.7659 28.8767 28.3217 28.3217C28.8767 27.7659 29.2209 27.2092 29.475 26.55C29.7217 25.9126 29.8907 25.1867 29.94 24.1226C29.99 23.0559 30 22.7167 30 20C30 17.2833 29.9874 16.9442 29.94 15.8775C29.89 14.8133 29.7217 14.0867 29.475 13.45C29.22 12.7925 28.8767 12.2342 28.3217 11.6783C27.7659 11.1225 27.2092 10.7792 26.55 10.525C25.9126 10.2775 25.1867 10.1092 24.1226 10.06C23.0559 10.01 22.7167 10 20 10ZM20 11.8C22.6692 11.8 22.9876 11.8133 24.0417 11.8592C25.0167 11.905 25.5457 12.0667 25.8974 12.205C26.3657 12.3858 26.6974 12.6025 27.0491 12.9517C27.3983 13.3017 27.615 13.6342 27.7957 14.1025C27.9324 14.4542 28.0957 14.9833 28.14 15.9583C28.1874 17.0133 28.1983 17.33 28.1983 20C28.1983 22.67 28.1857 22.9876 28.1367 24.0417C28.0857 25.0167 27.9233 25.5457 27.7859 25.8974C27.5992 26.3657 27.3867 26.6974 27.0367 27.0491C26.6876 27.3983 26.35 27.615 25.8867 27.7957C25.5367 27.9324 24.9992 28.0957 24.0242 28.14C22.9626 28.1874 22.65 28.1983 19.975 28.1983C17.2992 28.1983 16.9867 28.1857 15.9258 28.1367C14.95 28.0857 14.4125 27.9233 14.0625 27.7859C13.5883 27.5992 13.2625 27.3867 12.9133 27.0367C12.5625 26.6876 12.3383 26.35 12.1633 25.8867C12.0258 25.5367 11.8642 24.9992 11.8133 24.0242C11.7758 22.9742 11.7625 22.65 11.7625 19.9875C11.7625 17.3242 11.7758 16.9992 11.8133 15.9367C11.8642 14.9617 12.0258 14.425 12.1633 14.075C12.3383 13.6 12.5625 13.275 12.9133 12.9242C13.2625 12.575 13.5883 12.35 14.0625 12.1758C14.4125 12.0375 14.9383 11.875 15.9133 11.825C16.9758 11.7875 17.2883 11.775 19.9625 11.775L20 11.8ZM20 14.865C17.1625 14.865 14.865 17.165 14.865 20C14.865 22.8374 17.165 25.135 20 25.135C22.8374 25.135 25.135 22.835 25.135 20C25.135 17.1625 22.835 14.865 20 14.865ZM20 23.3333C18.1583 23.3333 16.6667 21.8417 16.6667 20C16.6667 18.1583 18.1583 16.6667 20 16.6667C21.8417 16.6667 23.3333 18.1583 23.3333 20C23.3333 21.8417 21.8417 23.3333 20 23.3333ZM26.5383 14.6625C26.5383 15.325 26 15.8625 25.3383 15.8625C24.6759 15.8625 24.1383 15.3242 24.1383 14.6625C24.1383 14.0008 24.6767 13.4633 25.3383 13.4633C25.9992 13.4625 26.5383 14.0008 26.5383 14.6625Z" fill="white"/>
</svg>
