<svg width="40" height="40" viewBox="0 0 40 40" fill="none" xmlns="http://www.w3.org/2000/svg">
<path d="M0 20C0 8.95431 8.95431 0 20 0V0C31.0457 0 40 8.95431 40 20V20C40 31.0457 31.0457 40 20 40V40C8.95431 40 0 31.0457 0 20V20Z" fill="#ABABFA"/>
<path d="M14.2017 22.6375C14.2006 23.1944 13.979 23.7281 13.5855 24.1221C13.192 24.5161 12.6585 24.7382 12.1017 24.74C11.5445 24.7387 11.0106 24.5168 10.6167 24.1227C10.2229 23.7287 10.0011 23.1947 10 22.6375C10.0015 22.0807 10.2235 21.5472 10.6174 21.1537C11.0112 20.7602 11.5449 20.5386 12.1017 20.5375H14.2017V22.6375ZM15.2608 22.6375C15.2624 22.0808 15.4842 21.5475 15.8779 21.154C16.2716 20.7605 16.805 20.5388 17.3617 20.5375C17.9183 20.5388 18.4517 20.7605 18.8454 21.154C19.2391 21.5475 19.461 22.0808 19.4625 22.6375V27.8984C19.4612 28.4552 19.2394 28.9888 18.8457 29.3827C18.4521 29.7765 17.9185 29.9985 17.3617 30C16.8048 29.9985 16.2712 29.7765 15.8776 29.3827C15.4839 28.9888 15.2622 28.4552 15.2608 27.8984V22.6375ZM17.3617 14.2017C16.8051 14.2001 16.2718 13.9784 15.8781 13.5849C15.4845 13.1915 15.2626 12.6582 15.2608 12.1017C15.2622 11.5448 15.4839 11.0111 15.8776 10.6173C16.2712 10.2235 16.8048 10.0015 17.3617 10C17.9185 10.0015 18.4521 10.2235 18.8457 10.6173C19.2394 11.0111 19.4612 11.5448 19.4625 12.1017V14.2017H17.3617ZM17.3617 15.2608C17.9184 15.2624 18.4518 15.4842 18.8455 15.8779C19.2392 16.2715 19.461 16.805 19.4625 17.3617C19.461 17.9184 19.2392 18.4518 18.8455 18.8455C18.4518 19.2392 17.9184 19.461 17.3617 19.4625H12.1017C11.5448 19.4612 11.0111 19.2394 10.6173 18.8457C10.2235 18.4521 10.0015 17.9185 10 17.3617C10.0015 16.8048 10.2235 16.2712 10.6173 15.8776C11.0111 15.4839 11.5448 15.2622 12.1017 15.2608H17.3617ZM25.7967 17.3617C25.7982 16.8048 26.0202 16.2712 26.414 15.8776C26.8078 15.4839 27.3415 15.2622 27.8984 15.2608C28.4552 15.2622 28.9888 15.4839 29.3827 15.8776C29.7765 16.2712 29.9985 16.8048 30 17.3617C29.9985 17.9185 29.7765 18.4521 29.3827 18.8457C28.9888 19.2394 28.4552 19.4612 27.8984 19.4625H25.7967V17.3617ZM24.74 17.3617C24.7385 17.9187 24.5164 18.4523 24.1224 18.8461C23.7284 19.2397 23.1945 19.4614 22.6375 19.4625C22.0808 19.461 21.5475 19.2391 21.154 18.8454C20.7605 18.4517 20.5388 17.9183 20.5375 17.3617V12.1017C20.5386 11.5449 20.7602 11.0112 21.1537 10.6174C21.5472 10.2235 22.0807 10.0015 22.6375 10C23.1947 10.0011 23.7287 10.2229 24.1227 10.6167C24.5168 11.0106 24.7387 11.5445 24.74 12.1017V17.3617ZM22.6375 25.7967C23.1947 25.7978 23.7287 26.0195 24.1227 26.4134C24.5168 26.8072 24.7387 27.3412 24.74 27.8984C24.7387 28.4554 24.5168 28.9894 24.1227 29.3832C23.7287 29.7772 23.1947 29.9988 22.6375 30C22.0807 29.9985 21.5472 29.7765 21.1537 29.3827C20.7602 28.9887 20.5386 28.4552 20.5375 27.8984V25.7967H22.6375ZM22.6375 24.74C22.0806 24.7385 21.5469 24.5164 21.1534 24.1224C20.7598 23.7282 20.5384 23.1944 20.5375 22.6375C20.5388 22.0809 20.7605 21.5476 21.154 21.154C21.5476 20.7605 22.0809 20.5388 22.6375 20.5375H27.8984C28.4552 20.5386 28.9887 20.7602 29.3827 21.1537C29.7765 21.5472 29.9985 22.0807 30 22.6375C29.9988 23.1947 29.7772 23.7287 29.3832 24.1227C28.9894 24.5168 28.4554 24.7387 27.8984 24.74H22.6375Z" fill="white"/>
</svg>
