<svg width="40" height="40" viewBox="0 0 40 40" fill="none" xmlns="http://www.w3.org/2000/svg">
<path d="M0 20C0 8.95431 8.95431 0 20 0C31.0457 0 40 8.95431 40 20C40 31.0457 31.0457 40 20 40C8.95431 40 0 31.0457 0 20Z" fill="#ABABFA"/>
<g clip-path="url(#clip0_1_1277)">
<path d="M29.9616 13.8077C29.2242 14.1318 28.4367 14.3527 27.6075 14.4535C28.4525 13.9443 29.1025 13.1418 29.41 12.1843C28.6175 12.6468 27.7392 12.9835 26.8042 13.171C26.0575 12.3718 24.9933 11.8718 23.8116 11.8718C21.5475 11.8718 19.7116 13.7077 19.7116 15.9693C19.7116 16.2943 19.7492 16.6068 19.8175 16.906C16.4092 16.7452 13.3883 15.1085 11.3667 12.6343C11.0108 13.236 10.8117 13.9352 10.8117 14.6968C10.8117 16.1218 11.5367 17.3743 12.635 18.1102C11.9625 18.0885 11.33 17.9035 10.7783 17.5968V17.6477C10.7783 19.6352 12.1892 21.2927 14.0667 21.6702C13.7225 21.7627 13.3592 21.8127 12.9867 21.8127C12.725 21.8127 12.4742 21.7877 12.2233 21.741C12.7492 23.3685 14.2608 24.5552 16.06 24.5885C14.66 25.6877 12.8858 26.3427 10.975 26.3427C10.65 26.3427 10.3258 26.3235 10 26.2868C11.8242 27.4485 13.9733 28.1277 16.2975 28.1277C23.8425 28.1277 27.9633 21.881 27.9633 16.4727C27.9633 16.2985 27.9633 16.1227 27.9508 15.9477C28.7516 15.3735 29.4508 14.6477 30.0008 13.8243L29.9616 13.8077Z" fill="white"/>
</g>
<defs>
<clipPath id="clip0_1_1277">
<rect width="20" height="20" fill="white" transform="translate(10 10)"/>
</clipPath>
</defs>
</svg>
