<svg width="256" height="50" viewBox="0 0 256 50" fill="none" xmlns="http://www.w3.org/2000/svg">
<path d="M30.7 5.02869C21.2615 2.73731 3.08747 18.3951 3.04858 30.0236C3.00223 43.8827 23.7399 49.9236 33.8217 44.0866C43.9035 38.2496 40.1385 7.32007 30.7 5.02869Z" fill="#ABABFA"/>
<path d="M33.3622 20.0633C33.3622 23.9484 30.2128 27.0978 26.3277 27.0978C22.4427 27.0978 19.2932 23.9484 19.2932 20.0633C19.2932 16.1783 22.4427 13.0288 26.3277 13.0288C30.2128 13.0288 33.3622 16.1783 33.3622 20.0633Z" fill="#111131"/>
<path d="M181.886 34.2434H187.3C190.567 34.2434 192.075 32.5578 192.075 30.2558C192.075 27.9464 190.545 26.5578 189.067 26.4539V26.3351C190.426 25.9712 191.48 24.9168 191.48 23.0158C191.48 20.7287 189.988 19.0356 187.018 19.0356H181.886V34.2434ZM183.275 32.9959V27.137H187.359C189.401 27.137 190.745 28.5182 190.745 30.2558C190.745 31.8301 189.646 32.9959 187.3 32.9959H183.275ZM183.275 25.9044V20.2831H187.018C189.097 20.2831 190.151 21.4044 190.151 23.0158C190.151 24.6866 188.941 25.9044 187.144 25.9044H183.275ZM195.427 19.0356H194.105V34.2434H195.427V19.0356ZM202.312 34.481C205.267 34.481 207.332 32.0677 207.332 28.5925C207.332 25.095 205.267 22.6816 202.312 22.6816C199.356 22.6816 197.292 25.095 197.292 28.5925C197.292 32.0677 199.356 34.481 202.312 34.481ZM202.312 33.2706C199.943 33.2706 198.621 31.1469 198.621 28.5925C198.621 26.038 199.943 23.8846 202.312 23.8846C204.681 23.8846 206.002 26.038 206.002 28.5925C206.002 31.1469 204.681 33.2706 202.312 33.2706ZM213.539 38.7582C216.242 38.7582 218.247 37.4364 218.247 34.5404V22.8376H216.955V25.0133H216.821C216.353 23.9886 215.41 22.6816 213.316 22.6816C210.495 22.6816 208.601 25.043 208.601 28.5108C208.601 32.0083 210.561 34.1246 213.294 34.1246C215.344 34.1246 216.346 32.9365 216.799 31.8895H216.918V34.4588C216.918 36.5825 215.559 37.5701 213.539 37.5701C211.586 37.5701 210.651 36.627 210.168 35.7582L209.084 36.4711C209.752 37.778 211.207 38.7582 213.539 38.7582ZM213.45 32.9142C211.185 32.9142 209.93 31.1023 209.93 28.4885C209.93 25.9192 211.163 23.8846 213.45 23.8846C215.685 23.8846 216.94 25.8153 216.94 28.4885C216.94 31.2434 215.648 32.9142 213.45 32.9142Z" fill="#ABABFA"/>
<path d="M56.4131 18.9475H62.0001V34.0156H65.814V18.9475H71.401V15.7663H56.4131V18.9475ZM76.7961 34.2829C80.1822 34.2829 82.4633 32.6345 82.998 30.0949L79.4871 29.8632C79.104 30.9058 78.1238 31.4493 76.8584 31.4493C74.9604 31.4493 73.7575 30.1929 73.7575 28.1523V28.1434H83.0782V27.1008C83.0782 22.4494 80.2624 20.1504 76.6446 20.1504C72.6169 20.1504 70.006 23.0108 70.006 27.2345C70.006 31.5741 72.5813 34.2829 76.7961 34.2829ZM73.7575 25.791C73.8377 24.2316 75.0228 22.984 76.707 22.984C78.3555 22.984 79.496 24.1603 79.505 25.791H73.7575ZM90.4849 34.2829C94.1294 34.2829 96.4194 32.1444 96.5977 28.9988H93.0155C92.7927 30.4602 91.8304 31.28 90.5294 31.28C88.7562 31.28 87.6067 29.7919 87.6067 27.1721C87.6067 24.588 88.7651 23.1088 90.5294 23.1088C91.9195 23.1088 92.8106 24.0266 93.0155 25.39H96.5977C96.4373 22.2266 94.0403 20.1504 90.467 20.1504C86.3146 20.1504 83.7483 23.0286 83.7483 27.2256C83.7483 31.3869 86.27 34.2829 90.4849 34.2829ZM101.569 26.1028C101.578 24.3385 102.657 23.3048 104.207 23.3048C105.749 23.3048 106.658 24.2939 106.649 25.9781V34.0156H110.445V25.3009C110.454 22.093 108.564 20.1504 105.713 20.1504C103.637 20.1504 102.247 21.1306 101.623 22.7435H101.463V15.7663H97.7734V34.0156H101.569V26.1028ZM128.35 22.1553C127.843 17.9405 124.652 15.5168 120.429 15.5168C115.608 15.5168 111.928 18.9207 111.928 24.891C111.928 30.8434 115.546 34.2651 120.429 34.2651C125.107 34.2651 127.932 31.1553 128.35 27.7959L124.447 27.7781C124.082 29.7295 122.549 30.8523 120.491 30.8523C117.72 30.8523 115.84 28.7939 115.84 24.891C115.84 21.095 117.693 18.9296 120.518 18.9296C122.63 18.9296 124.153 20.1504 124.447 22.1553H128.35ZM138.568 28.188C138.577 30.0236 137.321 30.986 135.958 30.986C134.523 30.986 133.596 29.979 133.587 28.3662V20.3286H129.791V29.0434C129.8 32.2424 131.671 34.1938 134.425 34.1938C136.483 34.1938 137.963 33.1335 138.577 31.5295H138.72V34.0156H142.364V20.3286H138.568V28.188ZM150.384 34.2829C153.77 34.2829 156.051 32.6345 156.586 30.0949L153.075 29.8632C152.692 30.9058 151.711 31.4493 150.446 31.4493C148.548 31.4493 147.345 30.1929 147.345 28.1523V28.1434H156.666V27.1008C156.666 22.4494 153.85 20.1504 150.232 20.1504C146.205 20.1504 143.594 23.0108 143.594 27.2345C143.594 31.5741 146.169 34.2829 150.384 34.2829ZM147.345 25.791C147.425 24.2316 148.61 22.984 150.295 22.984C151.943 22.984 153.084 24.1603 153.093 25.791H147.345ZM169.276 24.2316C168.938 21.7098 166.906 20.1504 163.449 20.1504C159.947 20.1504 157.639 21.7722 157.648 24.4098C157.639 26.4593 158.931 27.787 161.604 28.3216L163.974 28.7939C165.169 29.0345 165.712 29.4711 165.73 30.1572C165.712 30.9681 164.83 31.5473 163.502 31.5473C162.148 31.5473 161.248 30.9681 161.016 29.8543L157.282 30.0503C157.639 32.6701 159.867 34.2829 163.493 34.2829C167.04 34.2829 169.579 32.4741 169.588 29.7741C169.579 27.7959 168.287 26.6107 165.632 26.0672L163.155 25.5682C161.88 25.2919 161.408 24.8553 161.417 24.1959C161.408 23.3761 162.335 22.8415 163.511 22.8415C164.83 22.8415 165.614 23.5633 165.801 24.4454L169.276 24.2316Z" fill="#ABABFA"/>
</svg>
